<?xml version="1.0" encoding="utf-8"?>
<!-- Generator: Adobe Illustrator 23.0.3, SVG Export Plug-In . SVG Version: 6.00 Build 0)  -->
<svg version="1.1" id="Layer_1" xmlns="http://www.w3.org/2000/svg" xmlns:xlink="http://www.w3.org/1999/xlink" x="0px" y="0px"
	 viewBox="0 0 2000 2000" style="enable-background:new 0 0 2000 2000;" xml:space="preserve">
<style type="text/css">
	.st0{fill:#6D6D6D;}
	.st1{fill:url(#SVGID_1_);}
	.st2{fill:url(#SVGID_2_);}
	.st3{fill:url(#SVGID_3_);}
	.st4{fill:#FFFFFF;}
</style>
<g>
	<g>
		<path class="st0" d="M2869.49,5571.91l-43.78-38.34c-4.66-4.08-10.48-6.12-16.26-6.12c-6.32,0-12.67,2.43-17.46,7.23
			c-4.81,4.8-7.24,11.15-7.23,17.46c0,6.18,2.32,12.41,6.96,17.19l8.92,9.2l6.56-6.36l-8.93-9.2c-2.94-3.03-4.38-6.91-4.39-10.82
			c0.01-4,1.51-7.95,4.55-10.99c3.03-3.03,6.99-4.55,11-4.56c3.66,0,7.29,1.27,10.24,3.85l43.78,38.34L2869.49,5571.91
			L2869.49,5571.91z"/>
		<path class="st0" d="M2888.23,5453.29c-0.8,0.02-1.59,0.02-2.37,0.02c-14.47-0.01-24.6-2.56-32.96-6.33
			c-6.27-2.84-11.59-6.42-16.92-10.37c-7.99-5.89-15.99-12.65-26.96-18.03c-10.96-5.38-24.79-9.23-44.09-9.61l-0.21,0l-0.2,0.01
			c-8.77,0.6-16.26,2.89-22.44,6.62c-4.64,2.79-8.51,6.37-11.66,10.5c-4.72,6.2-7.81,13.6-9.74,21.61
			c-1.93,8.02-2.7,16.68-2.7,25.58c0.01,22.48,4.95,46.53,9.85,65.08c4.91,18.54,9.8,31.53,9.84,31.63l4.28-1.61l-4.34,1.43
			c6.58,19.94,13.52,32.64,20.63,40.64c3.56,3.99,7.19,6.8,10.83,8.61c3.63,1.81,7.27,2.58,10.62,2.57c3.17,0,6.06-0.67,8.57-1.63
			c3.77-1.45,6.7-3.53,8.75-5.25c2.04-1.73,3.2-3.11,3.33-3.26l-3.52-2.91l3.09,3.36l77.81-71.58l-3.09-3.36l3.01,3.44
			c2.95-2.58,6.58-3.85,10.24-3.85c4,0,7.96,1.52,11,4.56c3.04,3.04,4.55,7,4.55,10.99c0,3.92-1.45,7.79-4.39,10.82l-46.08,47.53
			c-1.18,1.21-2.69,1.79-4.25,1.8c-1.56-0.01-3.07-0.59-4.24-1.79l-23.58-24.23l-6.55,6.37l23.58,24.23
			c2.94,3.03,6.89,4.56,10.79,4.56c3.91,0.01,7.87-1.53,10.81-4.58l46.08-47.53c4.64-4.78,6.97-11,6.96-17.19
			c0-6.31-2.42-12.65-7.23-17.46c-4.8-4.8-11.14-7.24-17.46-7.23c-5.78,0-11.6,2.03-16.26,6.12l-0.04,0.04l-78.08,71.83l-0.2,0.24
			l1.35,1.12l-1.34-1.13l-0.01,0.02l1.35,1.12l-1.34-1.13c-0.03,0.04-1.62,1.89-4.14,3.6c-1.25,0.86-2.73,1.69-4.34,2.28
			c-1.61,0.6-3.33,0.97-5.15,0.97c-2-0.01-4.13-0.42-6.56-1.62c-3.62-1.79-7.95-5.46-12.58-12.41c-4.63-6.93-9.51-17.1-14.26-31.51
			l-0.03-0.09l-0.03-0.09l-0.05-0.13c-0.53-1.43-5.32-14.47-9.95-32.33c-4.64-17.85-9.1-40.54-9.09-61.03
			c0-7.43,0.58-14.57,1.92-21.05c2-9.74,5.66-17.89,11.33-23.72c2.84-2.92,6.2-5.3,10.26-7.08c4.06-1.78,8.85-2.96,14.53-3.35
			l-0.31-4.56l-0.09,4.57c16.19,0.34,27.67,3.16,36.89,7.13c6.92,2.99,12.61,6.65,18.06,10.6c8.17,5.9,15.81,12.55,25.96,17.78
			c5.07,2.61,10.76,4.83,17.36,6.39c6.6,1.55,14.1,2.44,22.85,2.44c0.84,0,1.68-0.01,2.55-0.02L2888.23,5453.29L2888.23,5453.29z"/>
		<path class="st0" d="M2877.62,5591.69l19.83,18.75l-0.02-0.02c0.19,0.18,2.33,2.21,5.98,4.28c3.64,2.05,8.86,4.19,15.15,4.2
			c5.28,0.02,11.25-1.59,17.05-5.73c4.37-3.1,8.66-7.56,12.79-13.73c6.2-9.26,12.07-22.37,17.33-40.87
			c5.25-18.51,9.87-42.43,13.43-73.35l0.01-0.13l0.01-0.14c0.11-2.04,0.17-4.09,0.17-6.15c0-13.32-2.44-26.81-8.72-38.95
			c-5.01-9.71-11.94-16.45-19.98-20.54c-8.04-4.11-17.01-5.61-26.27-5.62c-16.49,0.02-34.12,4.71-50.53,9.26
			c-8.2,2.28-16.07,4.54-23.25,6.2c-7.17,1.67-13.64,2.73-18.87,2.72c-1.19,0-2.31-0.05-3.36-0.16l-0.92,9.09
			c1.4,0.14,2.82,0.21,4.28,0.21c6.41-0.01,13.43-1.22,20.94-2.96c11.25-2.62,23.58-6.46,35.94-9.62
			c12.35-3.16,24.72-5.62,35.77-5.61c8.28,0,15.76,1.36,22.11,4.61c6.35,3.27,11.74,8.37,16.02,16.6c5.45,10.52,7.7,22.53,7.7,34.75
			c0,1.88-0.05,3.77-0.15,5.65l4.56,0.25l-4.54-0.52c-6.22,54.3-15.82,86.26-25.61,104.12c-4.88,8.94-9.76,14.32-14.14,17.42
			c-4.39,3.09-8.25,4.03-11.77,4.05c-4.16,0.01-7.93-1.46-10.66-3.01c-1.36-0.77-2.45-1.54-3.17-2.1c-0.36-0.28-0.63-0.51-0.8-0.65
			l-0.17-0.15l-0.03-0.02l-1.27,1.36l1.29-1.34l-0.01-0.01l-1.27,1.36l1.29-1.34l-0.04-0.03l-19.82-18.74L2877.62,5591.69z"/>
	</g>
	<g>
		<g>
			<path class="st0" d="M3096.54,5460.05h22.3c-0.09,4.9-1.11,9.18-3.1,12.83c-2.08,3.82-4.97,6.76-8.68,8.84
				c-3.7,2.08-7.98,3.12-12.83,3.12c-5.23,0-9.94-1.29-14.13-3.88c-4.19-2.59-7.51-6.4-9.96-11.45c-2.45-5.04-3.68-11.23-3.68-18.55
				c0-7.33,1.21-13.51,3.64-18.55c2.42-5.04,5.69-8.86,9.79-11.45c4.1-2.59,8.66-3.88,13.68-3.88c3.06,0,5.87,0.41,8.43,1.24
				c2.56,0.83,4.86,2.02,6.88,3.59c2.02,1.57,3.77,3.46,5.25,5.68c1.47,2.22,2.66,4.72,3.57,7.5h10.58
				c-0.77-4.1-2.18-7.84-4.21-11.22c-2.04-3.37-4.58-6.28-7.62-8.72c-3.04-2.44-6.5-4.32-10.37-5.66c-3.87-1.34-8.04-2-12.5-2
				c-5.43,0-10.4,1-14.92,3.02c-4.52,2.01-8.43,4.9-11.74,8.68c-3.31,3.77-5.86,8.34-7.67,13.7c-1.8,5.36-2.71,11.38-2.71,18.08
				c0,8.93,1.58,16.64,4.73,23.14s7.56,11.51,13.22,15.04c5.66,3.53,12.24,5.29,19.73,5.29c6.72,0,12.68-1.41,17.87-4.24
				c5.19-2.82,9.27-6.81,12.23-11.96c2.96-5.15,4.44-11.21,4.44-18.18v-9.09h-32.23V5460.05z"/>
			<path class="st0" d="M3199.59,5412.78c-5.62-3.53-12.04-5.29-19.25-5.29c-7.22,0-13.64,1.76-19.26,5.29
				c-5.62,3.53-10.04,8.54-13.26,15.04c-3.22,6.5-4.83,14.21-4.83,23.14c0,8.93,1.61,16.64,4.83,23.14s7.64,11.51,13.26,15.04
				c5.62,3.53,12.04,5.29,19.26,5.29c7.22,0,13.64-1.76,19.25-5.29c5.62-3.53,10.04-8.54,13.26-15.04
				c3.22-6.5,4.83-14.21,4.83-23.14c0-8.93-1.61-16.64-4.83-23.14C3209.63,5421.31,3205.21,5416.3,3199.59,5412.78z
				 M3204.11,5469.51c-2.44,5.04-5.73,8.86-9.88,11.45c-4.15,2.59-8.78,3.88-13.9,3.88c-5.12,0-9.76-1.29-13.9-3.88
				c-4.15-2.59-7.44-6.4-9.88-11.45c-2.44-5.04-3.66-11.23-3.66-18.55c0-7.33,1.22-13.51,3.66-18.55c2.44-5.04,5.73-8.86,9.88-11.45
				c4.15-2.59,8.78-3.88,13.9-3.88c5.12,0,9.76,1.29,13.9,3.88c4.15,2.59,7.44,6.41,9.88,11.45c2.44,5.04,3.66,11.23,3.66,18.55
				C3207.77,5458.28,3206.55,5464.47,3204.11,5469.51z"/>
			<polygon class="st0" points="3245.12,5455.42 3283.3,5455.42 3283.3,5446.33 3245.12,5446.33 3245.12,5417.73 3285.95,5417.73 
				3285.95,5408.64 3234.88,5408.64 3234.88,5493.27 3286.61,5493.27 3286.61,5484.18 3245.12,5484.18 			"/>
			<path class="st0" d="M3352.8,5413.71c-5.84-3.37-12.86-5.06-21.07-5.06h-27.27v84.62h26.12c8.59,0,15.89-1.7,21.9-5.1
				c6-3.4,10.58-8.28,13.72-14.63c3.14-6.35,4.71-13.93,4.71-22.75c0-8.76-1.56-16.29-4.67-22.58
				C3363.12,5421.91,3358.64,5417.08,3352.8,5413.71z M3357.6,5468.6c-2.26,4.99-5.69,8.83-10.29,11.53
				c-4.6,2.7-10.4,4.05-17.4,4.05h-15.2v-66.44h16.36c6.61,0,12.13,1.33,16.57,3.99c4.44,2.66,7.77,6.46,10,11.4
				c2.23,4.94,3.35,10.83,3.35,17.66C3360.98,5457.68,3359.85,5463.61,3357.6,5468.6z"/>
			<polygon class="st0" points="3443.46,5446.33 3398.34,5446.33 3398.34,5408.64 3388.09,5408.64 3388.09,5493.27 3398.34,5493.27 
				3398.34,5455.42 3443.46,5455.42 3443.46,5493.27 3453.71,5493.27 3453.71,5408.64 3443.46,5408.64 			"/>
			<path class="st0" d="M3498,5408.64l-31.07,84.62h10.74l8.51-23.97h34.22l8.51,23.97h10.74l-31.07-84.62H3498z M3489.41,5460.21
				l13.55-38.18h0.66l13.55,38.18H3489.41z"/>
			<path class="st0" d="M3597.79,5456.93c4.22-2.19,7.34-5.21,9.38-9.07c2.04-3.86,3.06-8.28,3.06-13.26
				c0-4.99-1.02-9.43-3.06-13.35c-2.04-3.91-5.18-6.99-9.42-9.24c-4.24-2.24-9.67-3.37-16.28-3.37h-28.59v84.62h10.25v-33.06h18.51
				c0.73,0,1.45-0.02,2.15-0.05l17.85,33.1h11.9l-19.12-34.9C3595.61,5457.95,3596.74,5457.47,3597.79,5456.93z M3563.12,5417.73
				h18.01c4.57,0,8.25,0.7,11.03,2.09c2.78,1.39,4.81,3.35,6.07,5.89c1.27,2.53,1.9,5.5,1.9,8.88c0,3.39-0.63,6.3-1.88,8.74
				c-1.25,2.44-3.26,4.32-6.03,5.64c-2.77,1.32-6.41,1.98-10.93,1.98h-18.18V5417.73z"/>
			<polygon class="st0" points="3622.62,5417.73 3649.23,5417.73 3649.23,5493.27 3659.48,5493.27 3659.48,5417.73 3686.09,5417.73 
				3686.09,5408.64 3622.62,5408.64 			"/>
		</g>
		<g>
			<polygon class="st0" points="3120.01,5537.02 3056.54,5537.02 3056.54,5546.11 3083.15,5546.11 3083.15,5621.65 3093.4,5621.65 
				3093.4,5546.11 3120.01,5546.11 			"/>
			<g>
				<path class="st0" d="M3149.79,5537.02l-31.07,84.62h10.74l8.51-23.97h34.22l8.51,23.97h10.74l-31.07-84.62H3149.79z
					 M3141.19,5588.59l13.55-38.18h0.66l13.55,38.18H3141.19z"/>
				<polygon class="st0" points="3261.68,5603.63 3260.85,5603.63 3214.57,5537.02 3204.66,5537.02 3204.66,5621.65 
					3214.91,5621.65 3214.91,5555.2 3215.73,5555.2 3261.84,5621.65 3271.76,5621.65 3271.76,5537.02 3261.68,5537.02 				"/>
				<path class="st0" d="M3340.6,5542.08c-5.84-3.37-12.86-5.06-21.07-5.06h-27.27v84.62h26.11c8.59,0,15.89-1.7,21.9-5.1
					c6-3.4,10.58-8.28,13.72-14.63c3.14-6.35,4.71-13.93,4.71-22.75c0-8.76-1.56-16.29-4.67-22.58
					C3350.92,5550.29,3346.44,5545.46,3340.6,5542.08z M3345.4,5596.98c-2.26,4.99-5.69,8.83-10.29,11.53
					c-4.6,2.7-10.4,4.05-17.4,4.05h-15.2v-66.44h16.36c6.61,0,12.13,1.33,16.57,3.99c4.44,2.66,7.77,6.46,10,11.4
					c2.23,4.95,3.35,10.83,3.35,17.66C3348.78,5586.06,3347.65,5591.99,3345.4,5596.98z"/>
				<path class="st0" d="M3395.73,5537.02l-31.07,84.62h10.74l8.51-23.97h34.22l8.51,23.97h10.74l-31.07-84.62H3395.73z
					 M3387.14,5588.59l13.55-38.18h0.66l13.55,38.18H3387.14z"/>
				<path class="st0" d="M3495.52,5585.31c4.22-2.19,7.34-5.21,9.38-9.07c2.04-3.86,3.06-8.28,3.06-13.26
					c0-4.99-1.02-9.44-3.06-13.35c-2.04-3.91-5.18-6.99-9.42-9.24c-4.24-2.24-9.67-3.37-16.28-3.37h-28.59v84.62h10.25v-33.06h18.51
					c0.73,0,1.45-0.02,2.15-0.05l17.85,33.1h11.9l-19.12-34.91C3493.34,5586.33,3494.47,5585.85,3495.52,5585.31z M3460.85,5546.11
					h18.01c4.57,0,8.25,0.7,11.03,2.09c2.78,1.39,4.81,3.35,6.07,5.89c1.27,2.54,1.9,5.5,1.9,8.88c0,3.39-0.63,6.3-1.88,8.74
					c-1.25,2.44-3.26,4.32-6.03,5.64c-2.77,1.32-6.41,1.98-10.93,1.98h-18.18V5546.11z"/>
				<polygon class="st0" points="3520.35,5546.11 3546.96,5546.11 3546.96,5621.65 3557.21,5621.65 3557.21,5546.11 
					3583.82,5546.11 3583.82,5537.02 3520.35,5537.02 				"/>
				<path class="st0" d="M3648.43,5581.92c-2.49-1.75-5.1-3.13-7.81-4.15c-2.71-1.02-5.17-1.82-7.38-2.4l-8.59-2.31
					c-1.57-0.41-3.29-0.96-5.17-1.63c-1.87-0.67-3.66-1.54-5.37-2.6c-1.71-1.06-3.11-2.4-4.19-4.01c-1.09-1.61-1.63-3.55-1.63-5.81
					c0-2.7,0.78-5.11,2.34-7.23c1.56-2.12,3.73-3.79,6.53-5c2.79-1.21,6.07-1.82,9.81-1.82c5.12,0,9.45,1.16,12.97,3.47
					c3.53,2.31,5.54,5.57,6.03,9.75h9.92c-0.14-4.27-1.45-8.08-3.95-11.45c-2.49-3.36-5.86-6.01-10.1-7.95
					c-4.24-1.94-9.09-2.91-14.54-2.91c-5.4,0-10.28,0.98-14.65,2.95c-4.37,1.97-7.84,4.72-10.41,8.26
					c-2.58,3.54-3.86,7.68-3.86,12.42c0,5.7,1.93,10.32,5.78,13.84c3.86,3.53,9.09,6.24,15.7,8.14l10.41,2.98
					c2.97,0.83,5.74,1.79,8.31,2.89c2.56,1.1,4.63,2.54,6.2,4.3c1.57,1.76,2.36,4.05,2.36,6.86c0,3.09-0.91,5.78-2.73,8.08
					c-1.82,2.3-4.28,4.09-7.4,5.37c-3.11,1.28-6.62,1.92-10.54,1.92c-3.36,0-6.49-0.5-9.4-1.51c-2.91-1.01-5.3-2.55-7.19-4.63
					s-2.97-4.72-3.24-7.91h-10.58c0.33,4.63,1.76,8.69,4.28,12.19c2.52,3.5,5.99,6.23,10.41,8.18c4.42,1.96,9.66,2.93,15.72,2.93
					c6.5,0,12.03-1.09,16.59-3.26c4.56-2.18,8.03-5.11,10.41-8.8c2.38-3.69,3.57-7.82,3.57-12.4c0-3.97-0.81-7.31-2.44-10.04
					C3652.98,5585.9,3650.92,5583.67,3648.43,5581.92z"/>
				<polygon class="st0" points="3684.15,5583.8 3722.33,5583.8 3722.33,5574.71 3684.15,5574.71 3684.15,5546.11 3724.97,5546.11 
					3724.97,5537.02 3673.9,5537.02 3673.9,5621.65 3725.63,5621.65 3725.63,5612.56 3684.15,5612.56 				"/>
				<polygon class="st0" points="3800.5,5537.02 3800.5,5603.63 3799.68,5603.63 3753.4,5537.02 3743.48,5537.02 3743.48,5621.65 
					3753.73,5621.65 3753.73,5555.2 3754.55,5555.2 3800.67,5621.65 3810.59,5621.65 3810.59,5537.02 				"/>
			</g>
		</g>
	</g>
</g>
<g>
	<g>
		<path class="st0" d="M553.56,5573.01l-44.63-39.09c-4.75-4.16-10.69-6.24-16.58-6.23c-6.45,0-12.91,2.48-17.8,7.37
			c-4.9,4.9-7.38,11.36-7.37,17.79c0,6.3,2.37,12.65,7.1,17.52l9.1,9.38l6.69-6.48l-9.1-9.38c-2.99-3.09-4.47-7.04-4.47-11.03
			c0.01-4.07,1.54-8.1,4.64-11.21c3.09-3.09,7.13-4.64,11.21-4.64c3.73,0,7.43,1.29,10.44,3.93l44.63,39.09L553.56,5573.01
			L553.56,5573.01z"/>
		<path class="st0" d="M572.66,5452.09c-0.82,0.02-1.63,0.02-2.42,0.02c-14.75-0.01-25.08-2.6-33.6-6.45
			c-6.4-2.89-11.82-6.55-17.25-10.57c-8.14-6-16.3-12.89-27.48-18.38c-11.18-5.49-25.27-9.41-44.94-9.8l-0.21,0l-0.21,0.01
			c-8.94,0.61-16.58,2.95-22.88,6.75c-4.73,2.84-8.68,6.49-11.88,10.71c-4.81,6.32-7.96,13.86-9.93,22.03
			c-1.97,8.17-2.76,17.01-2.76,26.08c0.01,22.91,5.04,47.43,10.04,66.33c5,18.89,9.99,32.14,10.03,32.24l4.36-1.64l-4.42,1.46
			c6.71,20.33,13.78,33.27,21.03,41.42c3.63,4.07,7.33,6.93,11.04,8.77c3.71,1.84,7.41,2.63,10.83,2.62c3.23,0,6.18-0.68,8.74-1.66
			c3.84-1.48,6.83-3.6,8.92-5.35c2.08-1.76,3.26-3.17,3.39-3.33l-3.59-2.97l3.15,3.43l79.32-72.97l-3.15-3.43l3.07,3.5
			c3.01-2.63,6.71-3.92,10.44-3.93c4.08,0,8.12,1.55,11.21,4.64c3.1,3.1,4.63,7.13,4.64,11.21c0,3.99-1.48,7.95-4.47,11.03
			l-46.97,48.44c-1.2,1.23-2.74,1.83-4.33,1.83c-1.59-0.01-3.13-0.6-4.32-1.83l-24.03-24.7l-6.68,6.5l24.03,24.7
			c3,3.09,7.02,4.65,11,4.65c3.99,0.01,8.02-1.56,11.02-4.66l46.97-48.45c4.73-4.87,7.1-11.22,7.1-17.52
			c0-6.43-2.47-12.9-7.37-17.79c-4.89-4.89-11.35-7.38-17.8-7.37c-5.89,0-11.83,2.07-16.58,6.23l-0.05,0.04l-79.59,73.22l-0.2,0.25
			l1.38,1.14l-1.37-1.16l-0.01,0.02l1.38,1.14l-1.37-1.16c-0.03,0.04-1.65,1.92-4.22,3.67c-1.28,0.88-2.79,1.72-4.42,2.33
			c-1.64,0.61-3.39,0.98-5.25,0.98c-2.03-0.01-4.21-0.43-6.69-1.65c-3.69-1.83-8.1-5.57-12.83-12.65
			c-4.72-7.07-9.69-17.43-14.53-32.12l-0.03-0.09l-0.04-0.09l-0.05-0.13c-0.54-1.46-5.42-14.75-10.15-32.96
			c-4.73-18.19-9.28-41.32-9.27-62.21c0-7.58,0.6-14.85,1.95-21.45c2.04-9.92,5.77-18.24,11.55-24.17c2.9-2.98,6.32-5.4,10.46-7.22
			c4.14-1.81,9.02-3.02,14.81-3.42l-0.32-4.65l-0.1,4.66c16.5,0.35,28.2,3.22,37.61,7.27c7.05,3.04,12.85,6.78,18.41,10.81
			c8.33,6.02,16.11,12.79,26.46,18.13c5.17,2.66,10.97,4.93,17.69,6.51c6.73,1.58,14.38,2.48,23.29,2.48c0.85,0,1.72-0.01,2.59-0.02
			L572.66,5452.09L572.66,5452.09z"/>
		<path class="st0" d="M561.85,5593.17l20.21,19.11l-0.02-0.02c0.2,0.19,2.37,2.26,6.09,4.37c3.71,2.09,9.03,4.27,15.45,4.28
			c5.38,0.02,11.46-1.62,17.38-5.84c4.45-3.16,8.82-7.71,13.03-14c6.31-9.44,12.3-22.8,17.66-41.66
			c5.35-18.87,10.06-43.25,13.68-74.76l0.01-0.13l0.01-0.15c0.11-2.08,0.17-4.17,0.17-6.26c0-13.58-2.48-27.32-8.89-39.7
			c-5.1-9.9-12.17-16.77-20.36-20.93c-8.19-4.18-17.34-5.72-26.78-5.72c-16.81,0.02-34.78,4.81-51.5,9.44
			c-8.35,2.32-16.39,4.63-23.7,6.32c-7.31,1.7-13.91,2.78-19.23,2.78c-1.21,0-2.36-0.05-3.42-0.16l-0.94,9.27
			c1.42,0.14,2.88,0.21,4.37,0.21c6.53-0.01,13.69-1.25,21.34-3.02c11.46-2.67,24.04-6.58,36.64-9.8
			c12.59-3.23,25.2-5.73,36.46-5.72c8.44,0,16.06,1.39,22.53,4.7c6.47,3.33,11.97,8.53,16.33,16.92
			c5.56,10.72,7.85,22.96,7.85,35.42c0,1.92-0.05,3.84-0.16,5.76l4.65,0.25l-4.63-0.53c-6.34,55.36-16.13,87.93-26.11,106.13
			c-4.98,9.11-9.95,14.6-14.41,17.75c-4.47,3.15-8.41,4.11-11.99,4.13c-4.24,0.01-8.08-1.49-10.86-3.07
			c-1.39-0.78-2.49-1.57-3.23-2.15c-0.37-0.29-0.64-0.52-0.81-0.67l-0.18-0.16l-0.03-0.02l-1.3,1.38l1.31-1.37l-0.01-0.01l-1.3,1.38
			l1.31-1.37l-0.04-0.04l-20.2-19.1L561.85,5593.17z"/>
	</g>
	<g>
		<path class="st0" d="M749.96,5520.78h13.67c-0.05,3-0.68,5.63-1.9,7.87c-1.28,2.34-3.05,4.15-5.32,5.42
			c-2.27,1.28-4.89,1.91-7.87,1.91c-3.21,0-6.1-0.79-8.67-2.38c-2.57-1.59-4.6-3.93-6.11-7.02c-1.5-3.09-2.26-6.88-2.26-11.38
			s0.74-8.29,2.23-11.38c1.49-3.09,3.49-5.43,6.01-7.02c2.52-1.59,5.31-2.38,8.39-2.38c1.88,0,3.6,0.25,5.17,0.76
			c1.57,0.51,2.98,1.24,4.22,2.2c1.24,0.96,2.31,2.12,3.22,3.48c0.9,1.36,1.63,2.89,2.19,4.6h6.49c-0.47-2.52-1.33-4.81-2.58-6.88
			c-1.25-2.07-2.81-3.85-4.68-5.35c-1.87-1.5-3.99-2.65-6.36-3.47c-2.37-0.82-4.93-1.23-7.67-1.23c-3.33,0-6.38,0.62-9.15,1.85
			c-2.77,1.23-5.17,3.01-7.2,5.32c-2.03,2.31-3.59,5.12-4.7,8.4s-1.66,6.98-1.66,11.09c0,5.47,0.97,10.2,2.9,14.19
			s4.64,7.06,8.11,9.22c3.47,2.16,7.5,3.24,12.1,3.24c4.12,0,7.77-0.87,10.96-2.6c3.18-1.73,5.68-4.18,7.5-7.34
			c1.82-3.16,2.72-6.88,2.72-11.15v-5.57h-19.77V5520.78z"/>
		<path class="st0" d="M813.16,5491.79c-3.45-2.16-7.38-3.24-11.81-3.24c-4.43,0-8.36,1.08-11.81,3.24
			c-3.45,2.16-6.16,5.24-8.13,9.22c-1.98,3.99-2.96,8.72-2.96,14.19s0.99,10.2,2.96,14.19s4.69,7.06,8.13,9.22
			c3.45,2.16,7.38,3.24,11.81,3.24c4.43,0,8.36-1.08,11.81-3.24c3.45-2.16,6.16-5.24,8.13-9.22c1.98-3.99,2.96-8.72,2.96-14.19
			s-0.99-10.2-2.96-14.19C819.32,5497.03,816.61,5493.96,813.16,5491.79z M815.93,5526.59c-1.49,3.09-3.51,5.43-6.06,7.02
			c-2.54,1.59-5.39,2.38-8.53,2.38c-3.14,0-5.98-0.79-8.53-2.38c-2.54-1.59-4.56-3.93-6.06-7.02c-1.49-3.09-2.24-6.88-2.24-11.38
			s0.75-8.29,2.24-11.38c1.5-3.09,3.51-5.43,6.06-7.02c2.54-1.59,5.38-2.38,8.53-2.38c3.14,0,5.98,0.79,8.53,2.38
			c2.54,1.59,4.56,3.93,6.06,7.02c1.5,3.09,2.24,6.88,2.24,11.38S817.43,5523.5,815.93,5526.59z"/>
		<polygon class="st0" points="841.08,5517.95 864.5,5517.95 864.5,5512.37 841.08,5512.37 841.08,5494.84 866.12,5494.84 
			866.12,5489.26 834.8,5489.26 834.8,5541.16 866.52,5541.16 866.52,5535.58 841.08,5535.58 		"/>
		<path class="st0" d="M907.12,5492.36c-3.58-2.07-7.89-3.1-12.92-3.1h-16.72v51.9h16.02c5.27,0,9.75-1.04,13.43-3.13
			c3.68-2.09,6.49-5.08,8.41-8.97c1.93-3.89,2.89-8.54,2.89-13.95c0-5.37-0.95-9.99-2.86-13.85
			C913.44,5497.4,910.7,5494.43,907.12,5492.36z M910.06,5526.03c-1.39,3.06-3.49,5.41-6.31,7.07c-2.82,1.66-6.38,2.48-10.67,2.48
			h-9.32v-40.75h10.03c4.05,0,7.44,0.81,10.16,2.45s4.76,3.96,6.13,6.99c1.37,3.03,2.05,6.64,2.05,10.83
			C912.14,5519.33,911.44,5522.97,910.06,5526.03z"/>
		<polygon class="st0" points="962.71,5512.37 935.04,5512.37 935.04,5489.26 928.76,5489.26 928.76,5541.16 935.04,5541.16 
			935.04,5517.95 962.71,5517.95 962.71,5541.16 969,5541.16 969,5489.26 962.71,5489.26 		"/>
		<path class="st0" d="M996.16,5489.26l-19.06,51.9h6.59l5.22-14.7h20.99l5.22,14.7h6.59l-19.06-51.9H996.16z M990.89,5520.89
			l8.31-23.41h0.41l8.31,23.41H990.89z"/>
		<path class="st0" d="M1057.36,5518.87c2.58-1.34,4.5-3.2,5.75-5.56s1.88-5.08,1.88-8.13c0-3.06-0.62-5.79-1.88-8.18
			s-3.18-4.29-5.78-5.66c-2.6-1.38-5.93-2.06-9.98-2.06h-17.54v51.9h6.28v-20.27h11.35c0.45,0,0.89-0.01,1.32-0.03l10.94,20.3h7.3
			l-11.73-21.41C1056.02,5519.5,1056.71,5519.21,1057.36,5518.87z M1036.1,5494.84h11.05c2.8,0,5.06,0.43,6.77,1.28
			c1.71,0.85,2.95,2.06,3.73,3.61s1.17,3.37,1.17,5.45s-0.38,3.86-1.15,5.36c-0.77,1.5-2,2.65-3.7,3.46
			c-1.7,0.81-3.93,1.22-6.7,1.22h-11.15V5494.84z"/>
		<polygon class="st0" points="1072.59,5494.84 1088.91,5494.84 1088.91,5541.16 1095.19,5541.16 1095.19,5494.84 1111.51,5494.84 
			1111.51,5489.26 1072.59,5489.26 		"/>
		<polygon class="st0" points="1177.39,5489.26 1138.47,5489.26 1138.47,5494.84 1154.79,5494.84 1154.79,5541.16 1161.07,5541.16 
			1161.07,5494.84 1177.39,5494.84 		"/>
		<path class="st0" d="M1195.65,5489.26l-19.06,51.9h6.59l5.22-14.7h20.99l5.22,14.7h6.59l-19.06-51.9H1195.65z M1190.38,5520.89
			l8.31-23.41h0.41l8.31,23.41H1190.38z"/>
		<polygon class="st0" points="1264.27,5530.11 1263.77,5530.11 1235.39,5489.26 1229.3,5489.26 1229.3,5541.16 1235.59,5541.16 
			1235.59,5500.41 1236.09,5500.41 1264.37,5541.16 1270.46,5541.16 1270.46,5489.26 1264.27,5489.26 		"/>
		<path class="st0" d="M1312.67,5492.36c-3.58-2.07-7.89-3.1-12.92-3.1h-16.72v51.9h16.02c5.27,0,9.75-1.04,13.43-3.13
			c3.68-2.09,6.49-5.08,8.41-8.97c1.93-3.89,2.89-8.54,2.89-13.95c0-5.37-0.95-9.99-2.86-13.85
			C1319,5497.4,1316.25,5494.43,1312.67,5492.36z M1315.61,5526.03c-1.39,3.06-3.49,5.41-6.31,7.07c-2.82,1.66-6.38,2.48-10.67,2.48
			h-9.32v-40.75h10.03c4.05,0,7.44,0.81,10.16,2.45s4.76,3.96,6.13,6.99c1.37,3.03,2.05,6.64,2.05,10.83
			C1317.69,5519.33,1317,5522.97,1315.61,5526.03z"/>
		<path class="st0" d="M1346.48,5489.26l-19.06,51.9h6.59l5.22-14.7h20.99l5.22,14.7h6.59l-19.06-51.9H1346.48z M1341.21,5520.89
			l8.31-23.41h0.41l8.31,23.41H1341.21z"/>
		<path class="st0" d="M1407.68,5518.87c2.58-1.34,4.5-3.2,5.75-5.56c1.25-2.37,1.88-5.08,1.88-8.13c0-3.06-0.63-5.79-1.88-8.18
			c-1.25-2.4-3.18-4.29-5.78-5.66c-2.6-1.38-5.93-2.06-9.98-2.06h-17.54v51.9h6.28v-20.27h11.35c0.45,0,0.89-0.01,1.32-0.03
			l10.94,20.3h7.3l-11.73-21.41C1406.34,5519.5,1407.03,5519.21,1407.68,5518.87z M1386.42,5494.84h11.05c2.8,0,5.06,0.43,6.77,1.28
			c1.71,0.85,2.95,2.06,3.73,3.61c0.78,1.55,1.17,3.37,1.17,5.45s-0.38,3.86-1.15,5.36s-2,2.65-3.7,3.46
			c-1.7,0.81-3.93,1.22-6.7,1.22h-11.15V5494.84z"/>
		<polygon class="st0" points="1422.91,5494.84 1439.22,5494.84 1439.22,5541.16 1445.51,5541.16 1445.51,5494.84 1461.83,5494.84 
			1461.83,5489.26 1422.91,5489.26 		"/>
		<path class="st0" d="M1501.45,5516.79c-1.53-1.07-3.13-1.92-4.79-2.55c-1.66-0.63-3.17-1.12-4.52-1.47l-5.27-1.42
			c-0.96-0.25-2.02-0.59-3.17-1c-1.15-0.41-2.25-0.95-3.29-1.6c-1.05-0.65-1.9-1.47-2.57-2.46c-0.67-0.99-1-2.17-1-3.56
			c0-1.66,0.48-3.13,1.43-4.43c0.95-1.3,2.29-2.32,4-3.07c1.71-0.74,3.72-1.12,6.02-1.12c3.14,0,5.79,0.71,7.96,2.13
			c2.16,1.42,3.4,3.41,3.7,5.98h6.08c-0.08-2.62-0.89-4.96-2.42-7.02c-1.53-2.06-3.59-3.69-6.2-4.88s-5.57-1.79-8.92-1.79
			c-3.31,0-6.31,0.6-8.98,1.81s-4.81,2.9-6.39,5.07c-1.58,2.17-2.37,4.71-2.37,7.61c0,3.5,1.18,6.33,3.55,8.49
			c2.36,2.16,5.57,3.83,9.63,4.99l6.39,1.82c1.82,0.51,3.52,1.1,5.09,1.77s2.84,1.55,3.8,2.64c0.96,1.08,1.45,2.48,1.45,4.21
			c0,1.89-0.56,3.54-1.67,4.95c-1.12,1.41-2.63,2.51-4.54,3.29s-4.06,1.18-6.46,1.18c-2.06,0-3.98-0.31-5.76-0.92
			c-1.78-0.62-3.25-1.56-4.41-2.84s-1.82-2.89-1.99-4.85h-6.49c0.2,2.84,1.08,5.33,2.62,7.48c1.55,2.15,3.67,3.82,6.39,5.02
			s5.93,1.8,9.64,1.8c3.99,0,7.38-0.67,10.17-2c2.8-1.33,4.92-3.13,6.39-5.4c1.46-2.26,2.19-4.8,2.19-7.6c0-2.43-0.5-4.48-1.5-6.16
			C1504.24,5519.24,1502.97,5517.87,1501.45,5516.79z"/>
		<polygon class="st0" points="1523.35,5517.95 1546.77,5517.95 1546.77,5512.37 1523.35,5512.37 1523.35,5494.84 1548.39,5494.84 
			1548.39,5489.26 1517.07,5489.26 1517.07,5541.16 1548.79,5541.16 1548.79,5535.58 1523.35,5535.58 		"/>
		<polygon class="st0" points="1594.71,5489.26 1594.71,5530.11 1594.2,5530.11 1565.82,5489.26 1559.74,5489.26 1559.74,5541.16 
			1566.02,5541.16 1566.02,5500.41 1566.53,5500.41 1594.81,5541.16 1600.89,5541.16 1600.89,5489.26 		"/>
	</g>
</g>
<g>
	<g>
		
			<linearGradient id="SVGID_1_" gradientUnits="userSpaceOnUse" x1="-2020.4215" y1="-0.171" x2="-2018.7207" y2="-0.171" gradientTransform="matrix(1.9034 624.3259 624.3259 -1.9034 4901.4092 1261783)">
			<stop  offset="0" style="stop-color:#58D7A1"/>
			<stop  offset="1" style="stop-color:#489395"/>
		</linearGradient>
		<path class="st1" d="M1052.71,1019.66l-105.31-92.23c-11.21-9.82-25.22-14.72-39.12-14.71c-15.21-0.01-30.47,5.85-42,17.4
			c-11.56,11.56-17.41,26.82-17.39,41.99c-0.01,14.86,5.59,29.84,16.75,41.34l21.47,22.14l15.78-15.3l-21.47-22.14
			c-7.06-7.29-10.54-16.61-10.55-26.03c0.01-9.61,3.64-19.12,10.96-26.45c7.3-7.3,16.82-10.95,26.45-10.96
			c8.8,0.01,17.54,3.05,24.64,9.27l105.31,92.23L1052.71,1019.66L1052.71,1019.66z"/>
		
			<linearGradient id="SVGID_2_" gradientUnits="userSpaceOnUse" x1="-2020.4215" y1="-0.1896" x2="-2018.7207" y2="-0.1896" gradientTransform="matrix(1.9034 624.3259 624.3259 -1.9034 4884.8408 1261783)">
			<stop  offset="0" style="stop-color:#58D7A1"/>
			<stop  offset="1" style="stop-color:#489395"/>
		</linearGradient>
		<path class="st2" d="M1097.78,734.34c-1.93,0.04-3.83,0.05-5.71,0.05c-34.8-0.03-59.17-6.15-79.29-15.22
			c-15.09-6.83-27.88-15.45-40.71-24.94c-19.21-14.17-38.47-30.43-64.84-43.37c-26.37-12.95-59.63-22.2-106.04-23.12l-0.49-0.01
			l-0.49,0.03c-21.1,1.45-39.12,6.96-53.99,15.92c-11.15,6.71-20.48,15.32-28.04,25.26c-11.36,14.92-18.79,32.71-23.43,51.98
			c-4.64,19.29-6.5,40.13-6.51,61.53c0.02,54.06,11.9,111.92,23.68,156.53c11.8,44.59,23.57,75.84,23.66,76.09l10.29-3.87
			l-10.44,3.44c15.83,47.97,32.52,78.5,49.62,97.74c8.56,9.6,17.29,16.36,26.04,20.7c8.74,4.35,17.49,6.21,25.55,6.19
			c7.62,0,14.58-1.61,20.62-3.92c9.07-3.48,16.13-8.49,21.04-12.64c4.91-4.15,7.69-7.48,8.01-7.85l-8.47-7.01l7.44,8.09
			l187.16-172.18l-7.44-8.09l7.24,8.27c7.1-6.21,15.83-9.26,24.63-9.26c9.63,0.01,19.15,3.66,26.46,10.96
			c7.31,7.32,10.94,16.83,10.95,26.45c-0.01,9.42-3.49,18.75-10.55,26.04l-110.84,114.32c-2.83,2.91-6.47,4.31-10.22,4.33
			c-3.75-0.01-7.38-1.41-10.2-4.31l-56.71-58.29l-15.75,15.33l56.71,58.29c7.08,7.29,16.57,10.98,25.96,10.96
			c9.4,0.01,18.92-3.69,26-11l110.84-114.32c11.16-11.5,16.76-26.47,16.75-41.34c0.01-15.17-5.83-30.43-17.39-41.99
			c-11.54-11.54-26.79-17.41-42-17.39c-13.9-0.01-27.91,4.89-39.12,14.71l-0.11,0.09l-187.8,172.77l-0.48,0.58l3.25,2.69l-3.22-2.73
			l-0.03,0.04l3.25,2.69l-3.22-2.73c-0.07,0.1-3.9,4.54-9.95,8.66c-3.02,2.07-6.57,4.06-10.43,5.49c-3.86,1.44-8,2.32-12.39,2.32
			c-4.8-0.01-9.95-1.02-15.79-3.9c-8.72-4.31-19.12-13.13-30.26-29.84c-11.13-16.68-22.87-41.12-34.29-75.79l-0.07-0.21l-0.08-0.22
			l-0.12-0.31c-1.28-3.44-12.79-34.81-23.94-77.77c-11.16-42.93-21.9-97.51-21.88-146.79c0-17.88,1.41-35.04,4.61-50.62
			c4.81-23.42,13.62-43.04,27.26-57.05c6.84-7.03,14.92-12.75,24.69-17.04c9.77-4.28,21.28-7.11,34.94-8.06l-0.76-10.96l-0.23,10.99
			c38.94,0.82,66.55,7.6,88.74,17.16c16.64,7.18,30.32,16,43.45,25.5c19.66,14.19,38.02,30.18,62.44,42.77
			c12.2,6.28,25.87,11.63,41.75,15.36c15.88,3.74,33.93,5.86,54.96,5.86c2.01,0,4.05-0.02,6.12-0.06L1097.78,734.34L1097.78,734.34z
			"/>
		
			<linearGradient id="SVGID_3_" gradientUnits="userSpaceOnUse" x1="-2020.4215" y1="-0.0494" x2="-2018.7207" y2="-0.0494" gradientTransform="matrix(1.9034 624.3259 624.3259 -1.9034 5009.7119 1261782.625)">
			<stop  offset="0" style="stop-color:#58D7A1"/>
			<stop  offset="1" style="stop-color:#489395"/>
		</linearGradient>
		<path class="st3" d="M1072.26,1067.23l47.7,45.11l-0.06-0.05c0.47,0.44,5.6,5.33,14.37,10.3c8.76,4.94,21.31,10.07,36.45,10.09
			c12.7,0.04,27.05-3.83,41.02-13.79c10.5-7.45,20.82-18.19,30.76-33.02c14.9-22.27,29.03-53.8,41.67-98.32
			c12.63-44.52,23.75-102.07,32.29-176.42l0.03-0.31l0.02-0.35c0.27-4.91,0.4-9.85,0.4-14.78c0-32.04-5.86-64.48-20.98-93.69
			c-12.04-23.36-28.72-39.56-48.05-49.4c-19.33-9.87-40.92-13.5-63.18-13.51c-39.66,0.05-82.06,11.34-121.54,22.28
			c-19.71,5.48-38.67,10.92-55.92,14.92c-17.24,4.02-32.81,6.57-45.39,6.55c-2.86,0-5.56-0.13-8.08-0.38l-2.22,21.87
			c3.36,0.34,6.79,0.5,10.31,0.5c15.42-0.02,32.3-2.94,50.36-7.12c27.05-6.3,56.72-15.54,86.45-23.13
			c29.71-7.61,59.46-13.52,86.03-13.5c19.93,0,37.9,3.28,53.17,11.1c15.27,7.86,28.23,20.14,38.54,39.93
			c13.11,25.3,18.52,54.19,18.52,83.58c0,4.53-0.13,9.06-0.37,13.59l10.97,0.6l-10.92-1.25c-14.97,130.62-38.06,207.49-61.6,250.45
			c-11.74,21.5-23.48,34.44-34,41.9c-10.56,7.44-19.85,9.69-28.3,9.74c-10.01,0.02-19.07-3.52-25.63-7.24
			c-3.27-1.85-5.88-3.71-7.62-5.06c-0.87-0.68-1.51-1.22-1.92-1.57l-0.42-0.37l-0.06-0.06l-3.06,3.26l3.1-3.23l-0.03-0.03
			l-3.06,3.26l3.1-3.23l-0.09-0.08l-47.67-45.08L1072.26,1067.23z"/>
	</g>
	<g>
		<path class="st4" d="M701.19,1233.64h-18.06v-4.95h41.82v4.95h-18.11v49.77h-5.66V1233.64z"/>
		<path class="st4" d="M751.87,1275.41c0,3.52,0.31,6.8,0.55,8h-5.03c-0.31-0.92-0.55-2.72-0.68-5.66c-1.36,2.79-4.68,6.6-12.59,6.6
			c-9.22,0-13.18-5.98-13.18-11.93c0-8.74,6.8-12.72,18.58-12.72c3.05,0,5.62,0,7.15,0v-3.72c0-3.73-1.15-8.54-9.41-8.54
			c-7.34,0-8.49,3.76-9.29,6.93h-5.15c0.5-4.84,3.49-11.35,14.58-11.34c9.29,0.01,14.47,3.86,14.47,12.67V1275.41z M746.73,1263.7
			c-1.39,0-4.73,0-7.12,0c-8.35,0-13.23,2.24-13.23,8.46c0,4.57,3.21,7.78,8.44,7.78c10.47,0,11.91-6.99,11.91-14.9V1263.7z"/>
		<path class="st4" d="M764.31,1253.9c0-3.45,0-6.83-0.08-9.94h5.12c0.17,1.22,0.26,5.9,0.21,7.03c1.66-3.73,4.89-7.97,12.79-7.97
			c7.19,0,13.22,4.21,13.22,14.91v25.47h-5.25v-24.73c0-6.54-2.65-10.86-9.13-10.86c-8.5,0-11.62,6.83-11.62,15.12v20.47h-5.25
			V1253.9z"/>
		<path class="st4" d="M839.43,1225.74v46.41c0,3.75,0,7.38,0.08,11.26h-5.05c-0.17-0.99-0.27-4.39-0.28-6.16
			c-1.96,4.49-6.19,7.1-12.87,7.1c-10.2,0-16.39-8.3-16.39-20.22c0-12.15,6.71-21.11,17.53-21.11c7.47,0,10.61,3.13,11.74,5.51
			v-22.8H839.43z M810.42,1263.95c0,10.22,5.11,15.75,11.63,15.75c9.87,0,12.34-7.01,12.34-16.79c0-9.53-2.17-15.23-11.71-15.23
			C815.25,1247.68,810.42,1253.58,810.42,1263.95z"/>
		<path class="st4" d="M879.33,1275.41c0,3.52,0.31,6.8,0.55,8h-5.03c-0.31-0.92-0.55-2.72-0.68-5.66c-1.36,2.79-4.68,6.6-12.59,6.6
			c-9.22,0-13.18-5.98-13.18-11.93c0-8.74,6.8-12.72,18.58-12.72c3.05,0,5.62,0,7.15,0v-3.72c0-3.73-1.15-8.54-9.41-8.54
			c-7.34,0-8.49,3.76-9.29,6.93h-5.15c0.5-4.84,3.49-11.35,14.58-11.34c9.29,0.01,14.47,3.86,14.47,12.67V1275.41z M874.2,1263.7
			c-1.39,0-4.73,0-7.12,0c-8.35,0-13.23,2.24-13.23,8.46c0,4.57,3.21,7.78,8.44,7.78c10.47,0,11.91-6.99,11.91-14.9V1263.7z"/>
		<path class="st4" d="M891.76,1254.69c0-6.12-0.07-9.08-0.08-10.72h5.15c0.09,1.19,0.18,3.98,0.18,8.48
			c2.19-5.65,7.08-9.16,13.53-9.42v5.41c-8.15,0.41-13.53,5.43-13.53,15.08v19.89h-5.25V1254.69z"/>
		<path class="st4" d="M914.91,1243.96h7.1v-12h5.25v12h9.08v4.55h-9.08V1273c0,4.15,0.94,6.42,4.63,6.42c1.08,0,2.62-0.07,3.8-0.41
			v4.23c-1.5,0.59-3.59,0.72-5.35,0.72c-5.54,0-8.33-2.82-8.33-9.25v-26.2h-7.1V1243.96z"/>
		<path class="st4" d="M946.68,1272.34c1.24,4.76,4.67,7.59,10.5,7.59c6.46,0,9.04-2.9,9.04-6.94c0-4.13-1.86-6.11-10.09-8.1
			c-10.68-2.58-13.12-5.83-13.12-11.1c0-5.51,4.1-10.77,13.58-10.77c9.49,0,13.71,5.65,14.28,11.2h-5.15
			c-0.64-2.97-2.94-6.82-9.35-6.82c-6.25,0-8.08,3.06-8.08,5.95c0,3.32,1.77,4.97,9.32,6.79c11.51,2.75,14.1,6.55,14.1,12.44
			c0,7.06-5.68,11.76-14.66,11.76c-9.55,0-14.58-4.93-15.64-12.01H946.68z"/>
		<path class="st4" d="M983.42,1264.51c0.07,9.19,4.7,15.23,11.87,15.23c6.88,0,9.17-3.74,10.52-6.82h5.32
			c-1.61,5.14-5.81,11.43-16.02,11.43c-12.18,0-17.02-10.22-17.02-20.3c0-11.49,5.74-21.03,17.48-21.03
			c12.41,0,16.42,10.36,16.42,18.23c0,1.15,0,2.21-0.09,3.25H983.42z M1006.6,1260.43c-0.08-7.21-3.88-12.93-11.16-12.93
			c-7.58,0-10.99,5.29-11.78,12.93H1006.6z"/>
		<path class="st4" d="M1021.2,1253.9c0-3.45,0-6.83-0.08-9.94h5.12c0.17,1.22,0.26,5.9,0.21,7.03c1.66-3.73,4.89-7.97,12.79-7.97
			c7.19,0,13.22,4.21,13.22,14.91v25.47h-5.25v-24.73c0-6.54-2.65-10.86-9.13-10.86c-8.5,0-11.63,6.83-11.63,15.12v20.47h-5.25
			V1253.9z"/>
		<path class="st4" d="M1070.03,1278.01v21.05h-5.24v-45.43c0-3.23,0-6.64-0.08-9.67h5.12c0.16,1.41,0.19,3.79,0.19,6.69
			c2.3-4.39,6.49-7.63,13.43-7.63c9.23,0,15.77,7.74,15.77,19.65c0,14.15-7.59,21.68-17.14,21.68
			C1075.41,1284.35,1071.92,1281.46,1070.03,1278.01z M1093.75,1262.88c0-8.79-4.14-15.13-11.46-15.13
			c-8.92,0-12.54,5.62-12.54,15.83c0,10,2.88,16.14,12,16.14C1089.51,1279.71,1093.75,1273.23,1093.75,1262.88z"/>
		<path class="st4" d="M1108.65,1254.69c0-6.12-0.07-9.08-0.08-10.72h5.15c0.09,1.19,0.18,3.98,0.18,8.48
			c2.19-5.65,7.08-9.16,13.53-9.42v5.41c-8.15,0.41-13.53,5.43-13.53,15.08v19.89h-5.25V1254.69z"/>
		<path class="st4" d="M1161.84,1275.41c0,3.52,0.31,6.8,0.55,8h-5.03c-0.31-0.92-0.55-2.72-0.68-5.66
			c-1.36,2.79-4.68,6.6-12.59,6.6c-9.22,0-13.18-5.98-13.18-11.93c0-8.74,6.8-12.72,18.58-12.72c3.05,0,5.62,0,7.15,0v-3.72
			c0-3.73-1.15-8.54-9.41-8.54c-7.34,0-8.49,3.76-9.29,6.93h-5.15c0.5-4.84,3.49-11.35,14.58-11.34
			c9.29,0.01,14.47,3.86,14.47,12.67V1275.41z M1156.71,1263.7c-1.39,0-4.73,0-7.12,0c-8.35,0-13.23,2.24-13.23,8.46
			c0,4.57,3.21,7.78,8.44,7.78c10.47,0,11.91-6.99,11.91-14.9V1263.7z"/>
		<path class="st4" d="M1179.53,1263.62c3.49-3.88,13.45-14.13,18.76-19.66h6.45l-15.27,15.55l17.12,23.9h-6.29l-14.5-20.53
			l-6.27,6.05v14.49h-5.25v-57.67h5.25V1263.62z"/>
		<path class="st4" d="M1207.79,1243.96h7.1v-12h5.25v12h9.08v4.55h-9.08V1273c0,4.15,0.94,6.42,4.63,6.42
			c1.08,0,2.62-0.07,3.8-0.41v4.23c-1.5,0.59-3.59,0.72-5.35,0.72c-5.54,0-8.33-2.82-8.33-9.25v-26.2h-7.1V1243.96z"/>
		<path class="st4" d="M1236.87,1225.74h5.25v8.04h-5.25V1225.74z M1236.87,1243.96h5.25v39.45h-5.25V1243.96z"/>
		<path class="st4" d="M1259.73,1243.96v41.54c0,10.77-2.6,14.35-10.28,14.35c-0.31,0-1.86-0.08-2.42-0.16v-4.65
			c0.58,0.07,1.22,0.07,1.67,0.07c5.21,0,5.78-2.81,5.78-8.81v-42.33H1259.73z M1254.48,1233.78v-8.04h5.25v8.04H1254.48z"/>
		<path class="st4" d="M1277.34,1263.62c3.49-3.88,13.45-14.13,18.76-19.66h6.45l-15.27,15.55l17.12,23.9h-6.29l-14.5-20.53
			l-6.27,6.05v14.49h-5.25v-57.67h5.25V1263.62z"/>
		<path class="st4" d="M834.18,1371.48h-4.45c-0.34-0.82-0.52-3.46-0.61-8.15c-2.15,3.81-6.64,8.83-17.36,8.83
			c-15.74,0-23.94-11.97-23.94-27.53c0-16.36,8.77-28.65,25.02-28.65c12.21,0,20.12,6.49,21.76,16.44h-5.59
			c-2.12-7.01-7.07-11.57-16.33-11.57c-13.24,0-18.95,10.41-18.95,23.49c0,11.95,5.6,22.92,18.51,22.92
			c13.04,0,16.52-8.57,16.52-19.39v-0.6h-16.65v-4.95h22.07V1371.48z"/>
		<path class="st4" d="M895.05,1343.76c0,14.99-8.18,28.5-25.23,28.5c-15.72,0-24.71-12.44-24.71-28.15
			c0-15.56,8.9-28.14,25.3-28.14C885.59,1315.97,895.05,1327.67,895.05,1343.76z M851.03,1343.88c0,12.24,6.55,23.44,19.07,23.44
			c13.5,0,19.04-11.07,19.04-23.47c0-12.31-6.28-22.94-18.95-22.94C856.87,1320.91,851.03,1331.83,851.03,1343.88z"/>
		<path class="st4" d="M939.9,1345.18h-27.6v21.35h30.26l-0.77,4.95h-35.02v-54.72h34.48v4.95h-28.96v18.52h27.6V1345.18z"/>
		<path class="st4" d="M952.99,1316.75h18.78c15.18,0,25.58,10.48,25.58,26.85c0,16.27-10.15,27.87-25.73,27.87h-18.62V1316.75z
			 M958.58,1366.55h12.43c13.75,0,20.42-9.74,20.42-22.75c0-11.48-6.04-22.13-20.4-22.13h-12.44V1366.55z"/>
		<path class="st4" d="M1009.08,1316.75h5.59v23.39h30.89v-23.39h5.59v54.72h-5.59v-26.38h-30.89v26.38h-5.59V1316.75z"/>
		<path class="st4" d="M1072.76,1353.69l-6.47,17.79h-5.62l19.82-54.72h6.78l20.67,54.72h-6.02l-6.64-17.79H1072.76z
			 M1093.65,1348.74c-5.7-15.41-8.71-23.15-9.84-27.05h-0.08c-1.33,4.37-4.71,13.86-9.31,27.05H1093.65z"/>
		<path class="st4" d="M1122.74,1346.57v24.9h-5.61v-54.72h20.42c10.99,0,16.83,5.93,16.83,14.5c0,7.03-4.12,11.46-9.83,12.84
			c5.1,1.27,8.92,4.79,8.92,14.18v2.22c0,3.8-0.25,8.79,0.72,10.98h-5.54c-1.01-2.35-0.85-6.68-0.85-11.57v-1.3
			c0-8.45-2.45-12.04-12.63-12.04H1122.74z M1122.74,1341.67h12.62c9.05,0,13.15-3.39,13.15-10.11c0-6.31-4.11-9.9-12.14-9.9h-13.63
			V1341.67z"/>
		<path class="st4" d="M1178.69,1321.7h-18.06v-4.95h41.82v4.95h-18.11v49.77h-5.66V1321.7z"/>
	</g>
</g>
</svg>
